<svg aria-hidden="true" style="position: absolute; width: 0; height: 0; overflow: hidden;" version="1.1" xmlns="http://www.w3.org/2000/svg" xmlns:xlink="http://www.w3.org/1999/xlink">
<defs>
<symbol id="icon-company-logo" viewBox="0 0 75 32">
<path d="M13.033 2.222c-0.142 0-0.292 0-0.433 0.017-1.635 0.137-3.138 0.831-4.209 2.097-1.165 1.377-1.447 2.829-1.433 4.582l-3.116-0.005q-0.209-0.001-0.43-0.008c-0.407-0.011-0.829-0.023-1.21 0.047-0.229 0.042-0.43 0.153-0.591 0.322-0.283 0.295-0.29 0.667-0.271 1.047 0.029 0.601 0.080 1.202 0.132 1.803q0.043 0.491 0.080 0.98l0.518 6.683 0.251 3.227q0.018 0.24 0.033 0.482c0.035 0.577 0.071 1.163 0.224 1.716 0.511 1.792 1.916 3.166 3.689 3.624l0.036 0.008c0.699 0.169 1.51 0.15 2.273 0.132q0.341-0.009 0.663-0.011h7.859c0.2 0 0.407 0.005 0.615 0.010 0.677 0.016 1.382 0.033 2.015-0.115 0.89-0.207 1.79-0.695 2.44-1.339 0.604-0.6 1.087-1.4 1.298-2.227 0.161-0.633 0.202-1.327 0.241-2 0.013-0.217 0.025-0.433 0.041-0.643l0.344-4.427 0.429-5.434q0.032-0.403 0.075-0.812c0.058-0.589 0.117-1.183 0.115-1.765 0-0.358-0.076-0.692-0.333-0.958-0.176-0.183-0.465-0.273-0.709-0.313-0.367-0.059-0.768-0.049-1.157-0.039q-0.216 0.007-0.423 0.008-1.47-0.003-2.941 0.011h-0.042c0.023-1.878-0.395-3.489-1.745-4.863-1.090-1.129-2.615-1.832-4.304-1.839h-0.001zM18.973 12.935l0.053 0.003 0.004 0.010 0.002 0.005 0.007 0.015 0.002 0.005c0.009 0.022 0.011 0.027 0.011 0.061-0.017 2.303-0.633 5.268-2.268 6.955-1.513 1.561-3.863 2.328-6.007 2.371 0.998-1.878 2.603-3.659 4.257-4.981 0.256-0.204 0.523-0.389 0.792-0.573 0.172-0.12 0.345-0.239 0.515-0.363 0.165-0.121 0.387-0.285 0.409-0.505 0.021-0.203-0.087-0.36-0.213-0.505-0.178-0.103-0.308-0.147-0.511-0.087-0.289 0.085-0.579 0.298-0.841 0.491q-0.105 0.077-0.202 0.147c-2.118 1.511-3.851 3.422-5.118 5.633l-0.045 0.086c-0.043-1.842 0.377-3.385 1.506-4.867 1.695-2.223 4.94-3.531 7.649-3.9zM2.502 10.067h21.051c-0.075 0.709-0.123 1.424-0.171 2.138q-0.039 0.597-0.085 1.192l-0.567 7.103-0.212 2.617-0.027 0.343c-0.034 0.451-0.069 0.907-0.156 1.349-0.089 0.453-0.263 0.848-0.498 1.244-0.101 0.151-0.198 0.28-0.301 0.404l0.006-0.007c-0.61 0.729-1.612 1.273-2.563 1.345-0.518 0.039-1.051 0.029-1.58 0.020q-0.342-0.007-0.681-0.009l-7.843 0.001q-0.251 0.001-0.51 0.007c-0.527 0.011-1.067 0.023-1.573-0.065-0.695-0.124-1.305-0.424-1.802-0.851l0.005 0.004c-0.599-0.508-1.042-1.185-1.255-1.957l-0.006-0.028c-0.142-0.514-0.177-1.061-0.212-1.599q-0.013-0.203-0.028-0.402l-0.207-2.663zM19.44 11.7l-0.016 0.001c-3.195 0.37-6.833 1.684-8.899 4.273-1.328 1.664-2.053 3.827-1.813 5.959 0.053 0.468 0.159 0.915 0.311 1.36l-0.063 0.157c-0.262 0.659-0.871 2.191-0.66 2.645 0.061 0.131 0.187 0.219 0.322 0.261q0.083 0.026 0.17 0.035c0.179-0.029 0.345-0.067 0.453-0.227 0.115-0.172 0.233-0.586 0.335-0.94 0.048-0.169 0.093-0.323 0.131-0.433 0.131-0.373 0.28-0.74 0.429-1.106l0.002-0.004 0.052-0.129c2.635 0.008 5.45-0.817 7.356-2.698 2.132-2.104 2.669-5.497 2.673-8.367 0-0.227-0.015-0.495-0.181-0.668-0.102-0.107-0.255-0.139-0.397-0.136-0.069 0.002-0.137 0.009-0.207 0.017zM12.777 3.373c0.102-0.007 0.205-0.013 0.307-0.012 1.252 0.009 2.505 0.569 3.385 1.451 1.197 1.201 1.443 2.475 1.445 4.106l-9.747 0.004c-0.039-1.402 0.187-2.682 1.106-3.788 0.883-1.063 2.143-1.64 3.504-1.762z"></path>
<path d="M19.026 12.938l-0.053-0.003c-2.708 0.369-5.953 1.676-7.648 3.899-1.129 1.481-1.549 3.025-1.506 4.867 1.312-2.298 3.044-4.208 5.109-5.684l0.053-0.036q0.099-0.069 0.202-0.146c0.263-0.193 0.553-0.406 0.842-0.491 0.203-0.060 0.333-0.017 0.511 0.087 0.127 0.145 0.235 0.302 0.213 0.505-0.023 0.22-0.245 0.384-0.409 0.505q-0.256 0.185-0.515 0.362c-0.269 0.185-0.536 0.37-0.792 0.574-1.655 1.323-3.259 3.103-4.257 4.981 2.143-0.043 4.493-0.809 6.007-2.371 1.635-1.687 2.251-4.652 2.268-6.955 0-0.035-0.001-0.039-0.011-0.061l-0.008-0.020zM19.425 11.702l0.016-0.001q0.102-0.012 0.205-0.017c0.143-0.003 0.296 0.029 0.397 0.136 0.166 0.173 0.181 0.441 0.181 0.668-0.005 2.871-0.541 6.263-2.673 8.367-1.907 1.881-4.721 2.707-7.356 2.699l-0.052 0.129-0.002 0.004c-0.149 0.367-0.298 0.733-0.429 1.107-0.039 0.109-0.083 0.263-0.131 0.432-0.101 0.354-0.22 0.768-0.335 0.94-0.108 0.16-0.273 0.197-0.453 0.227-0.064-0.007-0.121-0.019-0.177-0.036l0.007 0.002c-0.135-0.043-0.26-0.131-0.321-0.261-0.213-0.453 0.397-1.985 0.66-2.645l0.062-0.157c-0.142-0.394-0.252-0.854-0.308-1.33l-0.003-0.030c-0.24-2.131 0.485-4.295 1.813-5.959 2.065-2.589 5.703-3.903 8.899-4.273z"></path>
<path d="M19.441 11.7l-0.015 0.002c-3.196 0.37-6.833 1.684-8.899 4.273-1.327 1.664-2.053 3.827-1.813 5.959 0.053 0.468 0.159 0.915 0.311 1.36l-0.062 0.157c-0.263 0.659-0.872 2.191-0.66 2.645 0.061 0.131 0.187 0.219 0.321 0.261q0.083 0.026 0.17 0.035c0.179-0.029 0.345-0.067 0.453-0.227 0.115-0.172 0.234-0.586 0.335-0.94 0.048-0.169 0.093-0.323 0.131-0.433 0.131-0.373 0.28-0.74 0.429-1.106l0.001-0.004 0.053-0.129c2.635 0.008 5.449-0.817 7.355-2.698 2.132-2.104 2.669-5.497 2.673-8.367 0-0.227-0.015-0.495-0.181-0.668-0.102-0.107-0.255-0.139-0.397-0.136q-0.103 0.005-0.206 0.017zM18.973 12.935l0.053 0.003 0.005 0.015 0.009 0.020c0.009 0.021 0.011 0.025 0.011 0.061-0.017 2.303-0.633 5.268-2.267 6.955-1.513 1.561-3.864 2.328-6.007 2.371 0.998-1.878 2.603-3.659 4.257-4.981 0.256-0.204 0.524-0.389 0.792-0.573 0.173-0.12 0.345-0.239 0.515-0.363 0.165-0.121 0.387-0.285 0.409-0.505 0.022-0.203-0.087-0.36-0.213-0.505-0.178-0.103-0.308-0.147-0.511-0.087-0.289 0.085-0.579 0.298-0.841 0.491q-0.105 0.077-0.202 0.147c-2.118 1.511-3.851 3.422-5.118 5.633l-0.045 0.086c-0.043-1.842 0.377-3.385 1.507-4.867 1.695-2.223 4.94-3.531 7.648-3.9zM60.587 19.505c-0.080-2.202-1.884-3.957-4.098-3.957-2.265 0-4.101 1.836-4.101 4.101 0 0.051 0.001 0.101 0.003 0.152l-0-0.007c0.080 2.202 1.884 3.956 4.098 3.956 2.265 0 4.101-1.836 4.101-4.101 0-0.051-0.001-0.102-0.003-0.152l0 0.007zM56.487 16.78c0.66 0.027 1.195 0.186 1.699 0.631 0.6 0.531 0.935 1.298 0.979 2.093s-0.207 1.601-0.748 2.193c-0.495 0.541-1.111 0.783-1.834 0.82-0.66-0.007-1.204-0.11-1.724-0.543-0.608-0.505-0.951-1.253-1.016-2.035-0.067-0.812 0.145-1.651 0.685-2.275 0.535-0.617 1.167-0.83 1.96-0.885zM49.189 19.165c-0.252-2.044-1.978-3.611-4.070-3.611-2.264 0-4.099 1.835-4.099 4.099 0 0.172 0.011 0.341 0.031 0.508l-0.002-0.020c0.252 2.044 1.978 3.611 4.070 3.611 2.264 0 4.099-1.835 4.099-4.099 0-0.172-0.011-0.341-0.031-0.508l0.002 0.020zM44.756 16.814c0.656-0.053 1.251 0.015 1.805 0.397 0.623 0.428 1.015 1.089 1.144 1.828 0.147 0.839 0.009 1.736-0.496 2.435-0.442 0.613-0.993 0.916-1.729 1.033-0.672 0.034-1.265-0.007-1.831-0.407-0.597-0.424-1.014-1.067-1.138-1.808l-0.002-0.016c-0.137-0.813 0.027-1.749 0.512-2.425 0.427-0.593 1.022-0.923 1.735-1.037zM69.185 15.545q-0.030 0.001-0.061 0.005c-1.032 0.122-1.962 0.621-2.611 1.441-0.741 0.936-0.995 2.122-0.849 3.295 0.127 1.064 0.668 1.982 1.455 2.603l0.008 0.006c0.968 0.751 2.195 0.943 3.39 0.779 0.692-0.095 1.731-0.427 2.173-1.002 0.103-0.127 0.165-0.29 0.165-0.468 0-0.033-0.002-0.066-0.006-0.099l0 0.004c-0.016-0.15-0.091-0.279-0.2-0.368l-0.001-0.001c-0.135-0.1-0.316-0.113-0.477-0.082-0.223 0.044-0.424 0.182-0.614 0.313q-0.060 0.042-0.119 0.081c-0.835 0.433-1.761 0.637-2.679 0.34-0.661-0.222-1.19-0.688-1.49-1.287l-0.007-0.015c-0.159-0.315-0.237-0.651-0.307-0.995h3.94c0.164 0 0.34 0.007 0.521 0.012 0.467 0.015 0.967 0.031 1.38-0.043 0.124-0.025 0.231-0.084 0.315-0.167l-0 0c0.194-0.189 0.228-0.457 0.223-0.715-0.022-0.987-0.486-1.96-1.204-2.629-0.829-0.771-1.829-1.061-2.944-1.011zM69.306 16.779c0.086-0.011 0.185-0.017 0.286-0.017 0.528 0 1.016 0.167 1.416 0.451l-0.008-0.005c0.589 0.419 0.899 1.013 1.023 1.713-0.499 0.007-1 0.005-1.5 0.003l-0.749-0.001-2.771 0.004c0.127-0.427 0.275-0.813 0.547-1.171 0.439-0.575 1.047-0.884 1.757-0.977z"></path>
<path d="M47.24 12.615c1.479-0.035 2.965-0.003 4.445-0.005 0.843-0.001 1.92-0.069 2.738 0.015 0.132 0.013 0.237 0.051 0.337 0.139 0.143 0.124 0.237 0.312 0.243 0.502 0.004 0.172-0.101 0.369-0.225 0.484-0.095 0.087-0.207 0.123-0.332 0.143-0.341 0.055-0.717 0.023-1.063 0.023l-1.836-0.003-0.001 6.815c0.003 0.574 0.075 1.827-0.011 2.315-0.027 0.153-0.083 0.306-0.188 0.423-0.109 0.118-0.265 0.193-0.439 0.193h-0c-0.177 0.004-0.349-0.035-0.476-0.163-0.15-0.15-0.205-0.371-0.223-0.576-0.033-0.379-0.003-0.779 0.001-1.159 0.007-0.562 0.002-1.125 0.001-1.687l0.005-6.163c-0.611 0.003-2.725 0.1-3.157-0.097-0.15-0.065-0.264-0.189-0.314-0.343l-0.001-0.004c-0.020-0.060-0.032-0.129-0.032-0.2 0-0.119 0.032-0.23 0.088-0.325l-0.002 0.003c0.104-0.188 0.242-0.269 0.441-0.33zM37.567 15.551c0.549-0.031 1.085 0.004 1.619 0.147 0.563 0.151 1.425 0.483 1.716 1.018 0.080 0.147 0.122 0.323 0.065 0.486-0.058 0.166-0.215 0.293-0.374 0.358-0.463 0.189-1.043-0.449-1.479-0.613-0.709-0.267-1.561-0.252-2.25 0.070-0.633 0.296-1.089 0.856-1.325 1.507-0.273 0.755-0.297 1.739 0.051 2.475 0.322 0.681 0.915 1.158 1.618 1.407 0.805 0.285 1.643 0.133 2.395-0.227 0.233-0.127 0.444-0.295 0.71-0.349 0.035-0.009 0.076-0.014 0.118-0.014 0.101 0 0.195 0.030 0.273 0.083l-0.002-0.001c0.144 0.1 0.26 0.297 0.28 0.471 0.017 0.164-0.047 0.314-0.147 0.44-0.44 0.545-1.419 0.819-2.086 0.901-1.156 0.142-2.361-0.090-3.287-0.828-0.846-0.666-1.417-1.65-1.531-2.768l-0.001-0.017c-0.015-0.131-0.023-0.283-0.023-0.437 0-0.993 0.345-1.904 0.922-2.622l-0.006 0.008c0.662-0.823 1.628-1.377 2.725-1.491l0.017-0.001zM62.269 13.481l0.069-0.003c0.205-0.007 0.411 0.049 0.556 0.2 0.346 0.361 0.209 1.578 0.205 2.076 0.471 0.003 1.616-0.143 1.969 0.171 0.127 0.113 0.18 0.271 0.18 0.44 0 0.163-0.042 0.319-0.163 0.433-0.33 0.313-1.521 0.19-1.987 0.187 0.004 1.001-0.131 4.087 0.177 4.845 0.499 1.228 1.58 0.148 2.196 0.438 0.132 0.063 0.24 0.193 0.289 0.331 0.069 0.194 0.008 0.368-0.072 0.547l-0.041 0.045c-0.373 0.387-1.072 0.481-1.586 0.488-0.596 0.009-1.16-0.093-1.6-0.533-0.319-0.319-0.516-0.757-0.613-1.192-0.149-0.673-0.088-1.417-0.087-2.103l0.002-2.865q-0.543 0-1.085-0.009c-0.064-0.039-0.12-0.080-0.172-0.124l0.002 0.002c-0.143-0.129-0.208-0.321-0.213-0.51-0.001-0.010-0.001-0.022-0.001-0.034 0-0.153 0.063-0.291 0.164-0.39l0-0c0.292-0.271 0.935-0.173 1.306-0.167-0.001-0.522-0.115-1.456 0.081-1.915 0.087-0.203 0.23-0.277 0.427-0.359z"></path>
<path d="M33.581 13.287c-0.623-0.061-3.672-0.040-4.73-0.025-0.195 0.003-0.375 0.017-0.533 0.028-0.135 0.010-0.253 0.019-0.352 0.019 0 0-0.421 0.099-0.557 0.288-0.089 0.124-0.12 0.282-0.141 0.43-0.113 0.788-0.179 1.592-0.245 2.393-0.035 0.421-0.069 0.842-0.111 1.259l-0.401 4.049c-0.011 0.108-0.029 0.256-0.051 0.424-0.068 0.542-0.162 1.293-0.101 1.593 0.033 0.165 0.121 0.303 0.268 0.389 0.144 0.085 0.308 0.133 0.473 0.162h0.001c0.34-0.001 0.853 0.005 1.427 0.011 1.188 0.012 4.21 0.027 4.913-0.003 0.14-0.007 0.288-0.018 0.42-0.068 0.179-0.065 0.32-0.199 0.392-0.37l0.002-0.004c0.071-0.18 0.055-0.381-0.025-0.555-0.067-0.16-0.202-0.28-0.368-0.326l-0.004-0.001h-6.075q0.152-1.342 0.272-2.687l0.072-0.729 0.007-0.072q0.072 0 0.184 0.003c0.619 0.009 3.63 0.031 4.013-0.027 0.141-0.020 0.273-0.056 0.376-0.16 0.133-0.134 0.189-0.32 0.177-0.507-0.009-0.172-0.084-0.326-0.2-0.437l-0-0c-0.077-0.069-0.175-0.117-0.283-0.132l-0.003-0c-0.358-0.052-3.035-0.038-3.711-0.029l-0.429 0.005 0.308-3.633h3.278c0.167 0 0.341 0.007 0.518 0.012 0.428 0.013 0.871 0.027 1.269-0.034 0.143-0.016 0.27-0.079 0.365-0.173l-0 0c0.125-0.127 0.195-0.317 0.185-0.494-0.023-0.322-0.278-0.577-0.598-0.6l-0.002-0z"></path>
</symbol>
<symbol id="icon-instagram" viewBox="0 0 32 32">
<path d="M15.997 6.16c3.207 0 3.587 0.016 4.847 0.072 1.172 0.052 1.804 0.248 2.227 0.413 0.557 0.215 0.96 0.477 1.377 0.893 0.421 0.423 0.68 0.821 0.9 1.379 0.164 0.423 0.36 1.060 0.412 2.227 0.056 1.267 0.071 1.645 0.071 4.847s-0.013 3.587-0.071 4.847c-0.052 1.173-0.248 1.804-0.413 2.227-0.215 0.557-0.477 0.96-0.893 1.377-0.424 0.423-0.821 0.68-1.379 0.9-0.423 0.164-1.060 0.36-2.227 0.413-1.267 0.056-1.645 0.069-4.847 0.069s-3.585-0.013-4.847-0.071c-1.172-0.051-1.804-0.248-2.227-0.412-0.54-0.203-1-0.509-1.377-0.895l-0.001-0.001c-0.389-0.377-0.695-0.837-0.891-1.352l-0.009-0.026c-0.164-0.421-0.36-1.059-0.413-2.227-0.056-1.265-0.071-1.644-0.071-4.847 0-3.2 0.015-3.584 0.071-4.845 0.053-1.173 0.249-1.805 0.413-2.227 0.216-0.559 0.479-0.96 0.895-1.379 0.378-0.389 0.838-0.696 1.353-0.891l0.026-0.009c0.423-0.164 1.059-0.36 2.227-0.413 1.26-0.055 1.64-0.069 4.847-0.069zM15.997 4.001c-3.257 0-3.664 0.015-4.944 0.071-1.275 0.057-2.152 0.263-2.911 0.559-0.833 0.318-1.543 0.79-2.127 1.386l-0.001 0.001c-0.596 0.584-1.068 1.292-1.373 2.084l-0.014 0.040c-0.296 0.764-0.501 1.635-0.559 2.909-0.056 1.284-0.069 1.692-0.069 4.949 0 3.259 0.013 3.665 0.069 4.945 0.057 1.275 0.263 2.152 0.559 2.911 0.318 0.833 0.79 1.542 1.386 2.126l0.001 0.001c0.584 0.595 1.293 1.065 2.084 1.369l0.040 0.014c0.764 0.296 1.635 0.503 2.909 0.559 1.28 0.056 1.688 0.071 4.945 0.071s3.667-0.013 4.945-0.071c1.275-0.056 2.151-0.263 2.909-0.559 0.831-0.317 1.54-0.788 2.123-1.382l0.001-0.001c0.664-0.667 1.077-1.335 1.383-2.123 0.295-0.764 0.501-1.635 0.557-2.911 0.056-1.28 0.071-1.687 0.071-4.944s-0.013-3.665-0.071-4.945c-0.056-1.275-0.263-2.151-0.557-2.911-0.305-0.838-0.774-1.551-1.372-2.132l-0.001-0.001c-0.584-0.594-1.292-1.064-2.082-1.368l-0.040-0.014c-0.764-0.296-1.636-0.503-2.911-0.559-1.284-0.061-1.692-0.076-4.949-0.076z"></path>
<path d="M15.997 9.836c-3.337 0.088-6.008 2.814-6.008 6.163s2.671 6.076 6 6.163l0.008 0c3.365-0.051 6.073-2.791 6.073-6.163s-2.708-6.112-6.069-6.163l-0.005-0zM15.997 19.996c-2.208 0-3.997-1.79-3.997-3.997s1.79-3.997 3.997-3.997v0c2.208 0 3.998 1.79 3.998 3.998s-1.79 3.998-3.998 3.998v0zM23.843 9.592c0 0.013 0.001 0.028 0.001 0.044 0 0.795-0.645 1.44-1.44 1.44s-1.44-0.645-1.44-1.44c0-0.015 0-0.031 0.001-0.046l-0 0.002c0.024-0.776 0.659-1.396 1.439-1.396s1.415 0.62 1.439 1.394l0 0.002z"></path>
</symbol>
<symbol id="icon-linkedin" viewBox="0 0 32 32">
<path d="M25.751 4h-19.5c-1.24 0-2.251 1.013-2.251 2.251v19.5c0 1.236 1.013 2.249 2.251 2.249h19.5c1.236 0 2.249-1.013 2.249-2.249v-19.5c0-1.24-1.013-2.251-2.249-2.251zM13 23.5h-3v-10.5h3zM11.5 11.5c-0.828 0-1.5-0.672-1.5-1.5s0.672-1.5 1.5-1.5v0c0.828 0 1.5 0.672 1.5 1.5s-0.672 1.5-1.5 1.5v0zM23.5 23.5h-3v-6c0-0.828-0.672-1.5-1.5-1.5s-1.5 0.672-1.5 1.5v0 6h-3v-10.5h3v1.861c0.619-0.849 1.565-1.861 2.625-1.861 1.867 0 3.375 1.679 3.375 3.751z"></path>
</symbol>
<symbol id="icon-menu" viewBox="0 0 32 32">
<path d="M5.333 8h21.333v2.667h-21.333zM5.333 14.667h21.333v2.667h-21.333zM5.333 21.333h21.333v2.667h-21.333z"></path>
</symbol>
<symbol id="icon-star" viewBox="0 0 32 32">
<path d="M8.688 19.097l-1.987 8.603c-0.023 0.092-0.036 0.197-0.036 0.306 0 0.735 0.596 1.331 1.331 1.331 0.277 0 0.535-0.085 0.748-0.23l-0.005 0.003 7.26-4.84 7.26 4.84c0.208 0.14 0.463 0.223 0.738 0.223 0.737 0 1.335-0.598 1.335-1.335 0-0.129-0.018-0.254-0.053-0.372l0.002 0.009-2.439-8.533 6.048-5.443c0.271-0.245 0.441-0.598 0.441-0.991 0-0.699-0.538-1.273-1.223-1.329l-0.005-0-7.601-0.605-3.289-7.281c-0.212-0.469-0.676-0.789-1.215-0.789s-1.002 0.32-1.211 0.781l-0.003 0.008-3.289 7.281-7.601 0.604c-0.69 0.056-1.228 0.63-1.228 1.329 0 0.374 0.154 0.712 0.402 0.955l0 0zM12.492 13.329c0.495-0.041 0.91-0.346 1.106-0.773l0.003-0.008 2.399-5.308 2.399 5.308c0.2 0.435 0.614 0.741 1.105 0.781l0.005 0 5.296 0.42-4.361 3.925c-0.379 0.341-0.529 0.867-0.391 1.357l1.671 5.847-4.981-3.321c-0.208-0.141-0.464-0.225-0.739-0.225s-0.532 0.084-0.744 0.228l0.005-0.003-5.205 3.471 1.4-6.061c0.022-0.090 0.034-0.193 0.034-0.299 0-0.374-0.154-0.712-0.402-0.954l-0-0-4.051-3.949z"></path>
</symbol>
<symbol id="icon-star-fillled" viewBox="0 0 32 32">
<path d="M8.688 19.097l-1.987 8.603c-0.023 0.092-0.036 0.197-0.036 0.306 0 0.735 0.596 1.331 1.331 1.331 0.277 0 0.535-0.085 0.748-0.23l-0.005 0.003 7.26-4.84 7.26 4.84c0.208 0.14 0.463 0.223 0.738 0.223 0.737 0 1.335-0.598 1.335-1.335 0-0.129-0.018-0.254-0.053-0.372l0.002 0.009-2.439-8.533 6.048-5.443c0.271-0.245 0.441-0.598 0.441-0.991 0-0.699-0.538-1.273-1.223-1.329l-0.005-0-7.601-0.605-3.289-7.281c-0.212-0.469-0.676-0.789-1.215-0.789s-1.002 0.32-1.211 0.781l-0.003 0.008-3.289 7.281-7.601 0.604c-0.69 0.056-1.228 0.63-1.228 1.329 0 0.374 0.154 0.712 0.402 0.955l0 0z"></path>
</symbol>
<symbol id="icon-x" viewBox="0 0 32 32">
<path d="M21.589 8.459l-5.657 5.656-5.656-5.656-1.885 1.885 5.656 5.656-5.656 5.656 1.885 1.885 5.656-5.656 5.657 5.656 1.885-1.885-5.656-5.656 5.656-5.656z"></path>
</symbol>
<symbol id="icon-youtube" viewBox="0 0 32 32">
<path d="M28.791 9.604c-0.315-1.149-1.201-2.037-2.326-2.349l-0.023-0.006c-2.088-0.573-10.44-0.583-10.44-0.583s-8.353-0.009-10.443 0.539c-1.146 0.334-2.029 1.222-2.349 2.347l-0.006 0.024c-0.551 2.088-0.556 6.419-0.556 6.419s-0.005 4.352 0.541 6.419c0.307 1.143 1.207 2.045 2.351 2.353 2.109 0.573 10.44 0.583 10.44 0.583s8.353 0.009 10.441-0.537c1.147-0.32 2.033-1.204 2.35-2.327l0.006-0.024c0.552-2.087 0.556-6.416 0.556-6.416s0.027-4.353-0.543-6.441zM13.328 20.007l0.007-8 6.943 4.007z"></path>
</symbol>
</defs>
</svg>
